<svg id="visual" viewBox="0 0 1600 1200" width="1600" height="1200" xmlns="http://www.w3.org/2000/svg" xmlns:xlink="http://www.w3.org/1999/xlink" version="1.1"><rect x="0" y="0" width="1600" height="1200" fill="#034121"></rect><path d="M0 196L17.8 198.2C35.7 200.3 71.3 204.7 106.8 204.3C142.3 204 177.7 199 213.2 201.7C248.7 204.3 284.3 214.7 320 207.5C355.7 200.3 391.3 175.7 426.8 175.3C462.3 175 497.7 199 533.2 198.3C568.7 197.7 604.3 172.3 640 159.7C675.7 147 711.3 147 746.8 147C782.3 147 817.7 147 853.2 148.7C888.7 150.3 924.3 153.7 960 166C995.7 178.3 1031.3 199.7 1066.8 198C1102.3 196.3 1137.7 171.7 1173.2 162.3C1208.7 153 1244.3 159 1280 160.5C1315.7 162 1351.3 159 1386.8 158.2C1422.3 157.3 1457.7 158.7 1493.2 159.2C1528.7 159.7 1564.3 159.3 1582.2 159.2L1600 159L1600 0L1582.2 0C1564.3 0 1528.7 0 1493.2 0C1457.7 0 1422.3 0 1386.8 0C1351.3 0 1315.7 0 1280 0C1244.3 0 1208.7 0 1173.2 0C1137.7 0 1102.3 0 1066.8 0C1031.3 0 995.7 0 960 0C924.3 0 888.7 0 853.2 0C817.7 0 782.3 0 746.8 0C711.3 0 675.7 0 640 0C604.3 0 568.7 0 533.2 0C497.7 0 462.3 0 426.8 0C391.3 0 355.7 0 320 0C284.3 0 248.7 0 213.2 0C177.7 0 142.3 0 106.8 0C71.3 0 35.7 0 17.8 0L0 0Z" fill="#eaafde" stroke-linecap="round" stroke-linejoin="miter"></path></svg>