<svg id="visual" viewBox="0 0 1600 1800" width="1600" height="1800" xmlns="http://www.w3.org/2000/svg" xmlns:xlink="http://www.w3.org/1999/xlink" version="1.1"><rect x="0" y="0" width="1600" height="1800" fill="#034121"></rect><defs><linearGradient id="grad1_0" x1="0%" y1="100%" x2="100%" y2="0%"><stop offset="30%" stop-color="#034121" stop-opacity="1"></stop><stop offset="70%" stop-color="#034121" stop-opacity="1"></stop></linearGradient></defs><defs><linearGradient id="grad2_0" x1="0%" y1="100%" x2="100%" y2="0%"><stop offset="30%" stop-color="#034121" stop-opacity="1"></stop><stop offset="70%" stop-color="#034121" stop-opacity="1"></stop></linearGradient></defs><g transform="translate(1600, 1800)"><path d="M-602.1 0C-545.9 -37.4 -489.7 -74.8 -483.9 -129.7C-478.2 -184.6 -522.9 -257 -504.9 -291.5C-486.8 -326 -406 -322.6 -369.1 -369.1C-332.2 -415.6 -339.4 -512 -301 -521.4C-262.7 -530.8 -178.9 -453.1 -121.1 -452.1C-63.4 -451 -31.7 -526.5 0 -602.1L0 0Z" fill="#eaafde"></path></g><g transform="translate(0, 0)"><path d="M602.1 0C527.6 36.1 453.2 72.2 437.6 117.2C422 162.3 465.2 216.2 478 276C490.9 335.8 473.2 401.6 425.7 425.7C378.3 449.9 301 432.5 246.5 427C192 421.4 160.2 427.7 122.9 458.8C85.6 490 42.8 546 0 602.1L0 0Z" fill="#eaafde"></path></g></svg>