<svg id="visual" viewBox="0 0 1600 1200" width="1600" height="1200" xmlns="http://www.w3.org/2000/svg" xmlns:xlink="http://www.w3.org/1999/xlink" version="1.1"><rect x="0" y="0" width="1600" height="1200" fill="#034121"></rect><g transform="translate(957.1838011875994 580.6547441808829)"><path d="M160.7 -322.7C205 -221.6 235.3 -171.4 263.6 -117.9C291.9 -64.4 318.2 -7.4 315.9 49.1C313.5 105.7 282.6 161.9 259.7 271.2C236.8 380.5 221.9 542.8 155 591.7C88 640.6 -31.1 576 -132.7 516.7C-234.4 457.3 -318.6 403.2 -395 332.5C-471.5 261.9 -540.1 174.7 -586.7 64.6C-633.2 -45.5 -657.7 -178.5 -581.6 -232.6C-505.5 -286.6 -328.8 -261.6 -215.1 -331C-101.4 -400.4 -50.7 -564.2 3.8 -570.1C58.2 -575.9 116.4 -423.8 160.7 -322.7" fill="#eaafde"></path></g></svg>