<svg width="251" height="152" viewBox="0 0 251 152" fill="none" xmlns="http://www.w3.org/2000/svg">
<mask id="path-1-outside-1_169_97" maskUnits="userSpaceOnUse" x="144" y="39" width="99" height="103" fill="black">
<rect fill="white" x="144" y="39" width="99" height="103"/>
<path d="M236.188 47.375L231.688 132.125L198.938 135.125L181.438 89.75L178.688 136H150.562L152.812 47.375L184.062 45.875L205.688 90.875L206.688 48.375L236.188 47.375Z"/>
</mask>
<path d="M236.188 47.375L231.688 132.125L198.938 135.125L181.438 89.75L178.688 136H150.562L152.812 47.375L184.062 45.875L205.688 90.875L206.688 48.375L236.188 47.375Z" fill="#EAAFDE"/>
<path d="M236.188 47.375L242.179 47.6931C242.268 46.0136 241.648 44.3738 240.471 43.1732C239.293 41.9726 237.665 41.3215 235.984 41.3784L236.188 47.375ZM231.688 132.125L232.235 138.1C235.203 137.828 237.521 135.419 237.679 132.443L231.688 132.125ZM198.938 135.125L193.339 137.284C194.305 139.787 196.814 141.345 199.485 141.1L198.938 135.125ZM181.438 89.75L187.036 87.591C186.02 84.9568 183.305 83.3873 180.515 83.8213C177.725 84.2554 175.616 86.5756 175.448 89.3939L181.438 89.75ZM178.688 136V142C181.863 142 184.488 139.526 184.677 136.356L178.688 136ZM150.562 136L144.564 135.848C144.523 137.465 145.137 139.03 146.266 140.188C147.396 141.347 148.945 142 150.562 142V136ZM152.812 47.375L152.525 41.3819C149.385 41.5326 146.894 44.0806 146.814 47.2227L152.812 47.375ZM184.062 45.875L189.47 43.2762C188.426 41.1032 186.183 39.7663 183.775 39.8819L184.062 45.875ZM205.688 90.875L200.28 93.4738C201.481 95.974 204.24 97.3247 206.951 96.7404C209.663 96.1561 211.621 93.7892 211.686 91.0161L205.688 90.875ZM206.688 48.375L206.484 42.3784C203.306 42.4862 200.764 45.0548 200.689 48.2339L206.688 48.375ZM236.188 47.375L230.196 47.0569L225.696 131.807L231.688 132.125L237.679 132.443L242.179 47.6931L236.188 47.375ZM231.688 132.125L231.14 126.15L198.39 129.15L198.938 135.125L199.485 141.1L232.235 138.1L231.688 132.125ZM198.938 135.125L204.536 132.966L187.036 87.591L181.438 89.75L175.839 91.909L193.339 137.284L198.938 135.125ZM181.438 89.75L175.448 89.3939L172.698 135.644L178.688 136L184.677 136.356L187.427 90.1061L181.438 89.75ZM178.688 136V130H150.562V136V142H178.688V136ZM150.562 136L156.561 136.152L158.811 47.5273L152.812 47.375L146.814 47.2227L144.564 135.848L150.562 136ZM152.812 47.375L153.1 53.3681L184.35 51.8681L184.062 45.875L183.775 39.8819L152.525 41.3819L152.812 47.375ZM184.062 45.875L178.655 48.4738L200.28 93.4738L205.688 90.875L211.095 88.2762L189.47 43.2762L184.062 45.875ZM205.688 90.875L211.686 91.0161L212.686 48.5161L206.688 48.375L200.689 48.2339L199.689 90.7339L205.688 90.875ZM206.688 48.375L206.891 54.3716L236.391 53.3716L236.188 47.375L235.984 41.3784L206.484 42.3784L206.688 48.375Z" fill="#034121" mask="url(#path-1-outside-1_169_97)"/>
<path d="M52.4184 85.5621C54.4148 85.4845 56.2234 86.7324 56.8593 88.6264L59.9239 97.7519L59.9845 97.9444C61.1563 101.961 56.6071 105.307 53.1022 102.889L40.4185 94.1372C36.8579 91.6803 38.4766 86.104 42.7993 85.9358L52.4184 85.5621Z" fill="#EAAFDE" stroke="#034121" stroke-linejoin="bevel"/>
<path d="M86.3605 42.7939L86.0807 43.2047L56.4134 86.716L56.1346 87.1252L55.7226 86.8504L54.2228 85.8499L53.7982 85.5676L54.0893 85.1492L84.1542 41.8766L84.4387 41.4678L86.3605 42.7939Z" fill="#EAAFDE" stroke="#034121"/>
<path d="M84.4517 42.2312C84.6978 42.7238 85.1972 43.0446 85.7536 43.0595L126.469 44.1515C127.961 44.1915 128.589 42.2653 127.361 41.4176L71.1747 2.6486C69.9462 1.80117 68.3685 3.07232 68.9354 4.45292L84.4065 42.13L84.4517 42.2312Z" fill="white" stroke="#034121"/>
<path d="M126.658 41.7424C126.913 41.6121 127.123 41.5649 127.314 41.6028C127.499 41.6395 127.767 41.7764 128.095 42.2278C128.799 43.198 129.655 45.0153 130.334 47.2307C131.011 49.438 131.5 51.9965 131.5 54.4348C131.5 59.339 130.028 63.48 129.042 65.7336C128.88 66.1045 128.783 66.7252 128.72 67.4592C128.655 68.2172 128.621 69.1686 128.617 70.2493C128.609 72.4118 128.719 75.1198 128.938 77.8938C129.158 80.6676 129.488 83.5169 129.921 85.9602C130.35 88.3824 130.893 90.4713 131.563 91.677C132.136 92.7098 132.535 94.4248 132.769 96.553C133 98.6635 133.062 101.12 133 103.592C132.875 108.553 132.251 113.495 131.523 115.782C131.3 116.484 131.322 117.375 131.479 118.348C131.639 119.332 131.947 120.459 132.346 121.664C133.143 124.074 134.324 126.857 135.479 129.541C136.639 132.237 137.769 134.829 138.488 136.891C138.848 137.923 139.096 138.797 139.195 139.47C139.245 139.806 139.254 140.072 139.231 140.272C139.208 140.473 139.157 140.566 139.123 140.605C138.685 141.106 138.249 141.343 137.813 141.425C137.367 141.509 136.867 141.442 136.29 141.24C135.712 141.038 135.089 140.711 134.409 140.313C133.706 139.901 133.042 139.473 132.256 139.005C131.524 138.569 130.981 138.242 130.544 138.069C130.064 137.878 129.645 137.844 129.184 138.035C128.792 138.198 128.384 138.523 127.893 138.911C127.379 139.317 126.703 139.853 125.719 140.521C124.782 141.156 124.038 141.356 123.431 141.345C122.821 141.334 122.286 141.109 121.768 140.78C121.507 140.614 121.257 140.426 121.004 140.23C120.758 140.038 120.498 139.828 120.247 139.646C119.753 139.286 119.172 138.934 118.5 138.934C117.883 138.934 117.329 139.149 116.838 139.406C116.591 139.536 116.35 139.68 116.12 139.822C115.886 139.965 115.665 140.104 115.439 140.233C114.988 140.491 114.567 140.682 114.135 140.748C113.717 140.812 113.261 140.764 112.729 140.49C112.715 140.482 112.667 140.452 112.617 140.322C112.566 140.186 112.527 139.979 112.518 139.688C112.498 139.106 112.594 138.302 112.787 137.314C113.172 135.345 113.915 132.773 114.729 130.05C115.539 127.338 116.419 124.483 117.063 121.984C117.7 119.509 118.132 117.291 117.997 115.887C117.747 113.281 117.248 107.984 116.937 102.931C116.781 100.404 116.672 97.9439 116.664 95.9143C116.66 94.8993 116.681 93.9976 116.733 93.2522C116.787 92.4985 116.871 91.9353 116.979 91.5803C117.244 90.7077 117.529 88.8758 117.786 86.6116C118.045 84.3302 118.28 81.564 118.437 78.7922C118.593 76.0215 118.672 73.2371 118.617 70.9211C118.59 69.7635 118.528 68.7152 118.425 67.8411C118.323 66.9787 118.176 66.2442 117.959 65.7375C116.526 62.3953 116.993 57.8195 117.979 54.5803C118.25 53.6877 118.343 52.3719 118.405 50.9866C118.469 49.5709 118.499 48.0505 118.623 46.6536C118.748 45.2457 118.962 44.0541 119.352 43.2854C119.543 42.9084 119.757 42.6745 119.982 42.551C120.197 42.4338 120.478 42.3845 120.879 42.4846C121.878 42.7343 122.518 42.7988 122.938 42.6965C123.175 42.639 123.371 42.5229 123.505 42.3381C123.581 42.2336 123.62 42.1232 123.645 42.0364C123.695 42.0484 123.759 42.0636 123.838 42.0881C123.95 42.1231 124.084 42.1695 124.243 42.2307L124.803 42.4592C125.043 42.5624 125.276 42.5212 125.438 42.4651C125.599 42.4096 125.753 42.319 125.88 42.2375C126.17 42.0517 126.382 41.8833 126.658 41.7424Z" fill="#EAAFDE" stroke="#034121" stroke-linejoin="round"/>
<path d="M85 42.5C85 42.5 124.763 45.2614 127.231 42.8026C129.698 40.3438 103.901 36.7017 103.901 36.7017L93.6991 27.7569L81.6763 17.8847L72.3191 11.4282L85 42.5Z" fill="#EAAFDE"/>
</svg>
