<svg width="1604" height="5149" viewBox="0 0 1604 5149" fill="none" xmlns="http://www.w3.org/2000/svg">
<path d="M1604 0H3.99902V5149H1604V0Z" fill="#034121"/>
<path d="M3.99902 83L17.299 82.5C30.699 82 57.299 81 83.999 85.7C110.699 90.3 137.299 100.7 163.999 104.8C190.699 109 217.299 107 243.999 105.2C270.699 103.3 297.299 101.7 323.999 101.5C350.699 101.3 377.299 102.7 403.999 97.5C430.699 92.3 457.299 80.7 483.999 76.2C510.699 71.7 537.299 74.3 563.999 74.5C590.699 74.7 617.299 72.3 643.999 73.2C670.699 74 697.299 78 723.999 81.5C750.699 85 777.299 88 803.999 85.2C830.699 82.3 857.299 73.7 883.999 76.7C910.699 79.7 937.299 94.3 963.999 98.7C990.699 103 1017.3 97 1044 93.2C1070.7 89.3 1097.3 87.7 1124 84.2C1150.7 80.7 1177.3 75.3 1204 79.7C1230.7 84 1257.3 98 1284 98C1310.7 98 1337.3 84 1364 78.5C1390.7 73 1417.3 76 1444 79.5C1470.7 83 1497.3 87 1524 84.8C1550.7 82.7 1577.3 74.3 1590.7 70.2L1604 66V0H1590.7C1577.3 0 1550.7 0 1524 0C1497.3 0 1470.7 0 1444 0C1417.3 0 1390.7 0 1364 0C1337.3 0 1310.7 0 1284 0C1257.3 0 1230.7 0 1204 0C1177.3 0 1150.7 0 1124 0C1097.3 0 1070.7 0 1044 0C1017.3 0 990.699 0 963.999 0C937.299 0 910.699 0 883.999 0C857.299 0 830.699 0 803.999 0C777.299 0 750.699 0 723.999 0C697.299 0 670.699 0 643.999 0C617.299 0 590.699 0 563.999 0C537.299 0 510.699 0 483.999 0C457.299 0 430.699 0 403.999 0C377.299 0 350.699 0 323.999 0C297.299 0 270.699 0 243.999 0C217.299 0 190.699 0 163.999 0C137.299 0 110.699 0 83.999 0C57.299 0 30.699 0 17.299 0H3.99902V83Z" fill="#EAAFDE"/>
<path d="M0.000346832 1052.04C55.3545 1051.86 73.1675 1200.7 118.51 1216.15C163.953 1231.59 218.054 1188.21 278.196 1175.21C338.338 1162.1 404.621 1179.58 429.037 1227C453.552 1274.32 436.301 1351.67 430.949 1406.19C425.497 1460.71 431.945 1492.49 463.371 1529.68C494.898 1566.88 607.813 1594.1 608.008 1652.1L2.03125 1654.14L0.000346832 1052.04Z" fill="#EAAFDE"/>
<path d="M0.000346832 2252.1C55.3546 2252.28 73.1676 2103.44 118.51 2088C163.953 2072.55 218.054 2115.93 278.196 2128.93C338.338 2142.04 404.622 2124.56 429.037 2077.14C453.553 2029.83 436.301 1952.47 430.95 1897.95C425.498 1843.43 431.945 1811.65 463.371 1774.46C494.898 1737.26 607.813 1710.04 608.009 1652.04L2.03125 1650L0.000346832 2252.1Z" fill="#EAAFDE"/>
<path d="M1604.01 3025.04C1548.65 3024.86 1530.84 3173.7 1485.5 3189.15C1440.06 3204.59 1385.95 3161.21 1325.81 3148.21C1265.67 3135.1 1199.39 3152.58 1174.97 3200C1150.46 3247.32 1167.71 3324.67 1173.06 3379.19C1178.51 3433.71 1172.06 3465.49 1140.64 3502.68C1109.11 3539.88 996.196 3567.1 996 3625.1L1601.98 3627.14L1604.01 3025.04Z" fill="#EAAFDE"/>
<path d="M1604.01 4225.1C1548.65 4225.28 1530.84 4076.44 1485.5 4060.99C1440.06 4045.55 1385.95 4088.93 1325.81 4101.93C1265.67 4115.04 1199.39 4097.56 1174.97 4050.14C1150.46 4002.82 1167.71 3925.47 1173.06 3870.95C1178.51 3816.43 1172.06 3784.65 1140.64 3747.46C1109.11 3710.26 996.196 3683.04 996 3625.04L1601.98 3623L1604.01 4225.1Z" fill="#EAAFDE"/>
</svg>
