<svg width="1603" height="3161" viewBox="0 0 1603 3161" fill="none" xmlns="http://www.w3.org/2000/svg">
<g clip-path="url(#clip0_160_26)">
<path d="M1600 0H0V1800H1600V0Z" fill="#034121"/>
<path d="M998 1800C998 1740.01 1110.38 1725.21 1116.18 1670.32C1121.88 1615.43 1077.19 1543.04 1095.18 1508.55C1113.28 1474.05 1194.07 1477.45 1230.96 1430.96C1267.86 1384.47 1260.66 1288.08 1299.05 1278.69C1337.34 1269.29 1421.13 1346.98 1478.92 1347.98C1536.61 1349.07 1568.31 1273.59 1600 1198V1800H998Z" fill="#EAAFDE"/>
<path d="M602.1 0C602.1 55 453.2 72.2 437.6 117.2C422 162.3 465.2 216.2 478 276C490.9 335.8 473.2 401.6 425.7 425.7C378.3 449.9 301 432.5 246.5 427C192 421.4 160.2 427.7 122.9 458.8C85.6 490 58 602.1 0 602.1V0H602.1Z" fill="#EAAFDE"/>
</g>
<path d="M1600 1800H0V3161H1600V1800Z" fill="#034121"/>
<path d="M998 1799.76C998.288 1862.61 1110.35 1878.92 1116.42 1936.41C1122.38 1993.89 1078 2069.94 1096.18 2105.99C1114.46 2142.05 1195.3 2138.12 1232.46 2186.66C1269.61 2235.2 1262.87 2336.21 1301.34 2345.88C1339.72 2355.56 1423.21 2273.78 1481.05 2272.47C1538.79 2271.05 1570.88 2349.99 1602.97 2429.04L1600.08 1798.32L998 1799.76Z" fill="#EAAFDE"/>
<defs>
<clipPath id="clip0_160_26">
<rect width="1600" height="1800" fill="white"/>
</clipPath>
</defs>
</svg>
