<svg id="visual" viewBox="0 0 1600 1800" width="1600" height="1800" xmlns="http://www.w3.org/2000/svg" xmlns:xlink="http://www.w3.org/1999/xlink" version="1.1"><rect x="0" y="0" width="1600" height="1800" fill="#034121"></rect><path d="M682 1800L717 1778.5C752 1757 822 1714 828.3 1671.2C834.7 1628.3 777.3 1585.7 768.7 1542.8C760 1500 800 1457 805.7 1414.2C811.3 1371.3 782.7 1328.7 801.7 1285.8C820.7 1243 887.3 1200 898.7 1157.2C910 1114.3 866 1071.7 815 1028.8C764 986 706 943 690.3 900C674.7 857 701.3 814 710.2 771.2C719 728.3 710 685.7 744.5 642.8C779 600 857 557 858.8 514.2C860.7 471.3 786.3 428.7 767.3 385.8C748.3 343 784.7 300 801.3 257.2C818 214.3 815 171.7 785.3 128.8C755.7 86 699.3 43 671.2 21.5L643 0L1600 0L1600 21.5C1600 43 1600 86 1600 128.8C1600 171.7 1600 214.3 1600 257.2C1600 300 1600 343 1600 385.8C1600 428.7 1600 471.3 1600 514.2C1600 557 1600 600 1600 642.8C1600 685.7 1600 728.3 1600 771.2C1600 814 1600 857 1600 900C1600 943 1600 986 1600 1028.8C1600 1071.7 1600 1114.3 1600 1157.2C1600 1200 1600 1243 1600 1285.8C1600 1328.7 1600 1371.3 1600 1414.2C1600 1457 1600 1500 1600 1542.8C1600 1585.7 1600 1628.3 1600 1671.2C1600 1714 1600 1757 1600 1778.5L1600 1800Z" fill="#eaafde" stroke-linecap="round" stroke-linejoin="miter"></path></svg>