<svg id="visual" viewBox="0 0 1600 1800" width="1600" height="1800" xmlns="http://www.w3.org/2000/svg" xmlns:xlink="http://www.w3.org/1999/xlink" version="1.1"><rect x="0" y="0" width="1600" height="1800" fill="#034121"></rect><path d="M0 83L13.3 82.5C26.7 82 53.3 81 80 85.7C106.7 90.3 133.3 100.7 160 104.8C186.7 109 213.3 107 240 105.2C266.7 103.3 293.3 101.7 320 101.5C346.7 101.3 373.3 102.7 400 97.5C426.7 92.3 453.3 80.7 480 76.2C506.7 71.7 533.3 74.3 560 74.5C586.7 74.7 613.3 72.3 640 73.2C666.7 74 693.3 78 720 81.5C746.7 85 773.3 88 800 85.2C826.7 82.3 853.3 73.7 880 76.7C906.7 79.7 933.3 94.3 960 98.7C986.7 103 1013.3 97 1040 93.2C1066.7 89.3 1093.3 87.7 1120 84.2C1146.7 80.7 1173.3 75.3 1200 79.7C1226.7 84 1253.3 98 1280 98C1306.7 98 1333.3 84 1360 78.5C1386.7 73 1413.3 76 1440 79.5C1466.7 83 1493.3 87 1520 84.8C1546.7 82.7 1573.3 74.3 1586.7 70.2L1600 66L1600 0L1586.7 0C1573.3 0 1546.7 0 1520 0C1493.3 0 1466.7 0 1440 0C1413.3 0 1386.7 0 1360 0C1333.3 0 1306.7 0 1280 0C1253.3 0 1226.7 0 1200 0C1173.3 0 1146.7 0 1120 0C1093.3 0 1066.7 0 1040 0C1013.3 0 986.7 0 960 0C933.3 0 906.7 0 880 0C853.3 0 826.7 0 800 0C773.3 0 746.7 0 720 0C693.3 0 666.7 0 640 0C613.3 0 586.7 0 560 0C533.3 0 506.7 0 480 0C453.3 0 426.7 0 400 0C373.3 0 346.7 0 320 0C293.3 0 266.7 0 240 0C213.3 0 186.7 0 160 0C133.3 0 106.7 0 80 0C53.3 0 26.7 0 13.3 0L0 0Z" fill="#eaafde" stroke-linecap="round" stroke-linejoin="miter"></path></svg>